<svg xmlns="http://www.w3.org/2000/svg" xmlns:xlink="http://www.w3.org/1999/xlink" width="50" zoomAndPan="magnify" viewBox="0 0 37.5 37.499999" height="50" preserveAspectRatio="xMidYMid meet" version="1.0"><defs><clipPath id="id1"><path d="M 10 0 L 27.921875 0 L 27.921875 37.007812 L 10 37.007812 Z M 10 0 " clip-rule="nonzero"/></clipPath><clipPath id="id2"><path d="M 9.921875 0 L 27.921875 0 L 27.921875 37.007812 L 9.921875 37.007812 Z M 9.921875 0 " clip-rule="nonzero"/></clipPath></defs><g clip-path="url(#id1)"><path fill="#ffffff" d="M 15.859375 14.023438 C 14.6875 13.246094 13.9375 11.941406 13.9375 10.371094 C 13.9375 8.574219 15.097656 7.257812 16.507812 5.335938 C 17.351562 4.191406 17.847656 2.953125 18.09375 2.125 L 19.796875 2.121094 C 20.046875 2.945312 20.515625 4.21875 21.332031 5.335938 C 22.742188 7.257812 23.90625 8.574219 23.90625 10.371094 C 23.90625 11.910156 23.179688 13.242188 22.046875 14.023438 Z M 17.589844 6.09375 C 17.421875 6.324219 17.253906 6.546875 17.09375 6.761719 C 16.132812 8.054688 15.453125 8.960938 15.300781 9.945312 M 15.53125 11.660156 C 15.648438 11.914062 15.796875 12.148438 15.980469 12.359375 M 23.398438 28.722656 L 14.441406 28.722656 L 14.441406 30.890625 L 10.875 33.351562 C 10.5 33.558594 10.273438 33.9375 10.273438 34.347656 C 10.273438 34.988281 10.824219 35.503906 11.503906 35.503906 L 26.339844 35.5 C 27.019531 35.5 27.570312 34.980469 27.570312 34.339844 C 27.570312 33.933594 27.339844 33.554688 26.96875 33.34375 L 23.515625 30.800781 Z M 22.03125 28.722656 L 21.414062 17.199219 L 16.429688 17.199219 L 15.8125 28.722656 Z M 23.90625 16.515625 C 23.90625 16.054688 23.527344 15.683594 23.058594 15.683594 L 14.785156 15.683594 C 14.316406 15.683594 13.9375 16.054688 13.9375 16.515625 C 13.9375 16.972656 14.316406 17.34375 14.785156 17.34375 L 23.058594 17.34375 C 23.527344 17.34375 23.90625 16.972656 23.90625 16.515625 Z M 23.351562 14.855469 C 23.351562 14.398438 22.972656 14.027344 22.503906 14.027344 L 15.339844 14.027344 C 14.871094 14.027344 14.492188 14.398438 14.492188 14.855469 C 14.492188 15.3125 14.871094 15.6875 15.339844 15.6875 L 22.503906 15.6875 C 22.972656 15.6875 23.351562 15.3125 23.351562 14.855469 Z M 27.6875 36.347656 C 27.6875 35.882812 27.300781 35.507812 26.828125 35.507812 L 11.015625 35.507812 C 10.539062 35.507812 10.15625 35.882812 10.15625 36.347656 C 10.15625 36.8125 10.539062 37.191406 11.015625 37.191406 L 26.824219 37.191406 C 27.300781 37.191406 27.6875 36.8125 27.6875 36.347656 Z M 20.636719 1.214844 C 20.636719 0.714844 20.21875 0.308594 19.710938 0.308594 L 18.132812 0.308594 C 17.625 0.308594 17.207031 0.714844 17.207031 1.214844 C 17.207031 1.710938 17.625 2.121094 18.132812 2.121094 L 19.710938 2.121094 C 20.21875 2.121094 20.636719 1.714844 20.636719 1.214844 Z M 20.636719 1.214844 " fill-opacity="1" fill-rule="nonzero"/></g><g clip-path="url(#id2)"><path fill="#010101" d="M 22.121094 14.253906 L 15.789062 14.253906 L 15.726562 14.214844 C 14.441406 13.359375 13.703125 11.957031 13.703125 10.371094 C 13.703125 8.714844 14.640625 7.453125 15.832031 5.859375 C 15.988281 5.644531 16.152344 5.429688 16.316406 5.199219 C 17.257812 3.921875 17.714844 2.578125 17.867188 2.0625 L 17.914062 1.894531 L 19.972656 1.890625 L 20.019531 2.054688 C 20.394531 3.296875 20.898438 4.355469 21.523438 5.199219 C 21.6875 5.429688 21.851562 5.644531 22.007812 5.859375 C 23.199219 7.453125 24.136719 8.714844 24.136719 10.371094 C 24.136719 11.925781 23.40625 13.363281 22.179688 14.214844 Z M 15.933594 13.792969 L 21.972656 13.792969 C 23.035156 13.027344 23.667969 11.753906 23.667969 10.371094 C 23.667969 8.863281 22.816406 7.714844 21.628906 6.128906 C 21.472656 5.917969 21.308594 5.699219 21.140625 5.46875 C 20.515625 4.621094 20.007812 3.570312 19.621094 2.351562 L 18.269531 2.355469 C 18.070312 2.980469 17.59375 4.25 16.699219 5.46875 C 16.535156 5.699219 16.371094 5.917969 16.210938 6.128906 C 15.027344 7.714844 14.171875 8.863281 14.171875 10.371094 C 14.171875 11.777344 14.8125 13.019531 15.933594 13.792969 Z M 15.53125 9.980469 C 15.679688 9.050781 16.351562 8.148438 17.285156 6.898438 L 17.292969 6.886719 C 17.449219 6.675781 17.613281 6.457031 17.78125 6.230469 C 17.855469 6.128906 17.832031 5.984375 17.726562 5.910156 C 17.621094 5.835938 17.472656 5.859375 17.398438 5.960938 C 17.230469 6.1875 17.070312 6.40625 16.914062 6.617188 L 16.90625 6.625 C 15.933594 7.929688 15.230469 8.871094 15.070312 9.910156 C 15.046875 10.035156 15.136719 10.152344 15.265625 10.171875 C 15.277344 10.171875 15.289062 10.175781 15.300781 10.175781 C 15.414062 10.175781 15.515625 10.09375 15.53125 9.980469 Z M 16.132812 12.539062 C 16.230469 12.457031 16.242188 12.308594 16.160156 12.214844 C 15.992188 12.019531 15.851562 11.800781 15.75 11.566406 C 15.695312 11.449219 15.558594 11.394531 15.4375 11.449219 C 15.320312 11.5 15.265625 11.636719 15.316406 11.753906 C 15.441406 12.027344 15.601562 12.28125 15.800781 12.511719 C 15.847656 12.566406 15.914062 12.59375 15.980469 12.59375 C 16.035156 12.59375 16.085938 12.574219 16.132812 12.539062 Z M 11.503906 35.734375 C 11.113281 35.734375 10.746094 35.59375 10.46875 35.332031 C 10.191406 35.070312 10.035156 34.71875 10.035156 34.347656 C 10.035156 33.863281 10.308594 33.40625 10.75 33.15625 L 14.207031 30.769531 L 14.207031 28.726562 C 14.207031 28.597656 14.3125 28.496094 14.445312 28.496094 L 23.398438 28.496094 C 23.523438 28.496094 23.628906 28.589844 23.636719 28.710938 L 23.746094 30.683594 L 27.097656 33.152344 C 27.535156 33.402344 27.804688 33.855469 27.804688 34.339844 C 27.804688 35.109375 27.148438 35.730469 26.339844 35.730469 Z M 14.679688 28.953125 L 14.679688 30.890625 C 14.679688 30.964844 14.640625 31.035156 14.578125 31.078125 L 11.011719 33.539062 C 11.003906 33.542969 11 33.546875 10.992188 33.550781 C 10.691406 33.71875 10.507812 34.023438 10.507812 34.347656 C 10.507812 34.59375 10.609375 34.824219 10.796875 34.996094 C 10.984375 35.175781 11.234375 35.273438 11.503906 35.273438 L 26.339844 35.265625 C 26.886719 35.265625 27.335938 34.851562 27.335938 34.339844 C 27.335938 34.015625 27.148438 33.710938 26.851562 33.542969 C 26.839844 33.539062 26.832031 33.53125 26.824219 33.527344 L 23.375 30.984375 C 23.316406 30.945312 23.285156 30.878906 23.28125 30.8125 L 23.175781 28.953125 Z M 22.03125 28.953125 L 15.8125 28.953125 C 15.746094 28.953125 15.683594 28.929688 15.640625 28.882812 C 15.597656 28.835938 15.574219 28.773438 15.578125 28.710938 L 16.191406 17.371094 C 16.199219 17.246094 16.304688 17.152344 16.429688 17.152344 L 21.414062 17.152344 C 21.539062 17.152344 21.644531 17.246094 21.648438 17.371094 L 22.265625 28.710938 C 22.269531 28.773438 22.246094 28.835938 22.203125 28.882812 C 22.15625 28.929688 22.09375 28.953125 22.03125 28.953125 Z M 16.058594 28.492188 L 21.78125 28.492188 L 21.191406 17.613281 L 16.652344 17.613281 Z M 23.058594 17.574219 L 14.785156 17.574219 C 14.1875 17.574219 13.703125 17.097656 13.703125 16.515625 C 13.703125 15.929688 14.1875 15.453125 14.785156 15.453125 L 23.058594 15.453125 C 23.65625 15.453125 24.140625 15.929688 24.140625 16.515625 C 24.140625 17.097656 23.65625 17.574219 23.058594 17.574219 Z M 14.785156 15.917969 C 14.445312 15.917969 14.171875 16.1875 14.171875 16.515625 C 14.171875 16.847656 14.445312 17.113281 14.785156 17.113281 L 23.058594 17.113281 C 23.394531 17.113281 23.667969 16.847656 23.667969 16.515625 C 23.667969 16.1875 23.394531 15.917969 23.058594 15.917969 Z M 22.503906 15.917969 L 15.339844 15.917969 C 14.742188 15.917969 14.257812 15.441406 14.257812 14.855469 C 14.257812 14.273438 14.742188 13.796875 15.339844 13.796875 L 22.503906 13.796875 C 23.101562 13.796875 23.585938 14.273438 23.585938 14.855469 C 23.585938 15.441406 23.101562 15.917969 22.503906 15.917969 Z M 15.339844 14.257812 C 15 14.257812 14.726562 14.527344 14.726562 14.855469 C 14.726562 15.1875 15 15.457031 15.339844 15.457031 L 22.503906 15.457031 C 22.839844 15.457031 23.113281 15.1875 23.113281 14.855469 C 23.113281 14.527344 22.839844 14.257812 22.503906 14.257812 Z M 26.828125 37.421875 L 11.015625 37.421875 C 10.410156 37.421875 9.921875 36.941406 9.921875 36.347656 C 9.921875 35.757812 10.410156 35.273438 11.015625 35.273438 L 26.828125 35.273438 C 27.429688 35.273438 27.921875 35.753906 27.921875 36.347656 C 27.921875 36.941406 27.429688 37.421875 26.828125 37.421875 Z M 11.015625 35.734375 C 10.671875 35.734375 10.390625 36.011719 10.390625 36.347656 C 10.390625 36.6875 10.671875 36.960938 11.015625 36.960938 L 26.824219 36.960938 C 27.171875 36.960938 27.449219 36.6875 27.449219 36.347656 C 27.449219 36.011719 27.171875 35.734375 26.824219 35.734375 Z M 19.710938 2.351562 L 18.132812 2.351562 C 17.492188 2.351562 16.972656 1.839844 16.972656 1.214844 C 16.972656 0.589844 17.492188 0.078125 18.132812 0.078125 L 19.710938 0.078125 C 20.347656 0.078125 20.867188 0.589844 20.867188 1.214844 C 20.867188 1.839844 20.351562 2.351562 19.710938 2.351562 Z M 18.132812 0.539062 C 17.75 0.539062 17.441406 0.84375 17.441406 1.214844 C 17.441406 1.585938 17.753906 1.890625 18.132812 1.890625 L 19.710938 1.890625 C 20.089844 1.890625 20.398438 1.585938 20.398438 1.214844 C 20.398438 0.84375 20.089844 0.539062 19.710938 0.539062 Z M 18.132812 0.539062 " fill-opacity="1" fill-rule="nonzero"/></g></svg>