<svg xmlns="http://www.w3.org/2000/svg" xmlns:xlink="http://www.w3.org/1999/xlink" width="50" zoomAndPan="magnify" viewBox="0 0 37.5 37.499999" height="50" preserveAspectRatio="xMidYMid meet" version="1.0"><defs><clipPath id="id1"><path d="M 9.410156 0 L 28 0 L 28 37.007812 L 9.410156 37.007812 Z M 9.410156 0 " clip-rule="nonzero"/></clipPath><clipPath id="id2"><path d="M 9.410156 0 L 28.160156 0 L 28.160156 37.007812 L 9.410156 37.007812 Z M 9.410156 0 " clip-rule="nonzero"/></clipPath></defs><g clip-path="url(#id1)"><path fill="#ffffff" d="M 14.851562 28.101562 L 15.632812 18.613281 L 21.933594 18.613281 L 22.714844 28.101562 Z M 23.515625 28.101562 L 13.964844 28.101562 C 13.964844 29.632812 13.164062 31.089844 12.089844 32.105469 L 10.882812 33.242188 C 10.515625 33.476562 10.292969 33.894531 10.292969 34.351562 C 10.292969 35.0625 10.832031 35.636719 11.5 35.636719 L 26.066406 35.628906 C 26.734375 35.628906 27.273438 35.054688 27.273438 34.34375 C 27.273438 33.886719 27.046875 33.46875 26.683594 33.234375 L 25.238281 31.898438 C 24.210938 30.949219 23.683594 29.59375 23.613281 28.144531 Z M 27.925781 36.425781 C 27.925781 35.988281 27.570312 35.636719 27.132812 35.636719 L 10.433594 35.636719 C 9.996094 35.636719 9.640625 35.988281 9.640625 36.425781 C 9.640625 36.863281 9.996094 37.21875 10.433594 37.21875 L 27.132812 37.21875 C 27.570312 37.21875 27.925781 36.863281 27.925781 36.425781 Z M 24.503906 17.648438 C 24.503906 17.113281 24.066406 16.679688 23.53125 16.679688 L 14.035156 16.679688 C 13.496094 16.679688 13.0625 17.113281 13.0625 17.648438 C 13.0625 18.183594 13.496094 18.617188 14.035156 18.617188 L 23.53125 18.617188 C 24.066406 18.617188 24.503906 18.183594 24.503906 17.648438 Z M 23.867188 15.714844 C 23.867188 15.179688 23.429688 14.746094 22.894531 14.746094 L 14.671875 14.746094 C 14.132812 14.746094 13.699219 15.179688 13.699219 15.714844 C 13.699219 16.246094 14.132812 16.679688 14.671875 16.679688 L 22.894531 16.679688 C 23.429688 16.679688 23.867188 16.246094 23.867188 15.714844 Z M 21.449219 5.167969 C 21.449219 4.632812 21.015625 4.203125 20.476562 4.203125 L 17.089844 4.203125 C 16.550781 4.203125 16.117188 4.632812 16.117188 5.167969 C 16.117188 5.703125 16.550781 6.136719 17.089844 6.136719 L 20.476562 6.136719 C 21.015625 6.136719 21.449219 5.703125 21.449219 5.167969 Z M 23.429688 6.136719 L 14.136719 6.136719 C 13.417969 6.136719 12.898438 6.8125 13.085938 7.503906 L 15.035156 14.746094 L 22.53125 14.746094 L 24.480469 7.503906 C 24.667969 6.8125 24.148438 6.136719 23.429688 6.136719 Z M 20.886719 1.53125 L 19.632812 1.53125 L 19.632812 0.28125 L 18.207031 0.28125 L 18.207031 1.53125 L 16.953125 1.53125 L 16.953125 2.953125 L 18.207031 2.953125 L 18.207031 4.203125 L 19.632812 4.203125 L 19.632812 2.953125 L 20.886719 2.953125 Z M 20.886719 1.53125 " fill-opacity="1" fill-rule="nonzero"/></g><g clip-path="url(#id2)"><path fill="#010101" d="M 22.714844 28.332031 L 14.851562 28.332031 C 14.789062 28.332031 14.726562 28.304688 14.683594 28.257812 C 14.640625 28.207031 14.617188 28.144531 14.621094 28.082031 L 15.402344 18.59375 C 15.414062 18.472656 15.511719 18.378906 15.632812 18.378906 L 21.933594 18.378906 C 22.054688 18.378906 22.15625 18.472656 22.164062 18.59375 L 22.945312 28.082031 C 22.949219 28.144531 22.929688 28.207031 22.882812 28.257812 C 22.839844 28.304688 22.777344 28.332031 22.714844 28.332031 Z M 15.105469 27.871094 L 22.460938 27.871094 L 21.71875 18.84375 L 15.84375 18.84375 Z M 11.5 35.867188 C 11.113281 35.867188 10.75 35.707031 10.476562 35.417969 C 10.207031 35.132812 10.0625 34.753906 10.0625 34.351562 C 10.0625 33.828125 10.320312 33.335938 10.742188 33.0625 L 11.929688 31.9375 C 13.058594 30.871094 13.734375 29.433594 13.734375 28.101562 C 13.734375 27.972656 13.835938 27.871094 13.964844 27.871094 L 23.519531 27.871094 C 23.550781 27.871094 23.582031 27.878906 23.613281 27.890625 L 23.707031 27.933594 C 23.789062 27.96875 23.839844 28.046875 23.84375 28.132812 C 23.914062 29.589844 24.46875 30.871094 25.398438 31.730469 L 26.824219 33.054688 C 27.246094 33.328125 27.503906 33.820312 27.503906 34.34375 C 27.503906 35.179688 26.859375 35.859375 26.066406 35.863281 Z M 14.191406 28.332031 C 14.121094 29.738281 13.421875 31.164062 12.25 32.273438 L 11.042969 33.410156 C 11.03125 33.421875 11.019531 33.429688 11.007812 33.4375 C 10.710938 33.628906 10.523438 33.976562 10.523438 34.351562 C 10.523438 34.636719 10.628906 34.902344 10.816406 35.101562 C 11 35.296875 11.242188 35.40625 11.5 35.40625 L 26.066406 35.398438 C 26.605469 35.398438 27.042969 34.925781 27.042969 34.34375 C 27.042969 33.96875 26.855469 33.621094 26.558594 33.429688 C 26.546875 33.425781 26.535156 33.414062 26.523438 33.40625 L 25.082031 32.070312 C 24.101562 31.160156 23.503906 29.839844 23.390625 28.332031 Z M 27.132812 37.449219 L 10.433594 37.449219 C 9.867188 37.449219 9.410156 36.988281 9.410156 36.425781 C 9.410156 35.863281 9.867188 35.40625 10.433594 35.40625 L 27.132812 35.40625 C 27.695312 35.40625 28.15625 35.863281 28.15625 36.425781 C 28.15625 36.988281 27.695312 37.449219 27.132812 37.449219 Z M 10.433594 35.867188 C 10.125 35.867188 9.871094 36.117188 9.871094 36.425781 C 9.871094 36.734375 10.125 36.988281 10.433594 36.988281 L 27.132812 36.988281 C 27.441406 36.988281 27.691406 36.734375 27.691406 36.425781 C 27.691406 36.117188 27.441406 35.867188 27.132812 35.867188 Z M 23.53125 18.847656 L 14.035156 18.847656 C 13.371094 18.847656 12.832031 18.308594 12.832031 17.648438 C 12.832031 16.988281 13.371094 16.449219 14.035156 16.449219 L 23.53125 16.449219 C 24.195312 16.449219 24.734375 16.988281 24.734375 17.648438 C 24.734375 18.308594 24.195312 18.847656 23.53125 18.847656 Z M 14.035156 16.910156 C 13.625 16.910156 13.292969 17.242188 13.292969 17.648438 C 13.292969 18.054688 13.625 18.386719 14.035156 18.386719 L 23.53125 18.386719 C 23.9375 18.386719 24.269531 18.054688 24.269531 17.648438 C 24.269531 17.242188 23.9375 16.910156 23.53125 16.910156 Z M 22.894531 16.910156 L 14.671875 16.910156 C 14.007812 16.910156 13.46875 16.375 13.46875 15.714844 C 13.46875 15.050781 14.007812 14.515625 14.671875 14.515625 L 22.894531 14.515625 C 23.558594 14.515625 24.097656 15.050781 24.097656 15.714844 C 24.097656 16.375 23.558594 16.910156 22.894531 16.910156 Z M 14.671875 14.976562 C 14.261719 14.976562 13.929688 15.308594 13.929688 15.714844 C 13.929688 16.121094 14.261719 16.449219 14.671875 16.449219 L 22.894531 16.449219 C 23.300781 16.449219 23.632812 16.121094 23.632812 15.714844 C 23.632812 15.308594 23.300781 14.976562 22.894531 14.976562 Z M 20.476562 6.367188 L 17.089844 6.367188 C 16.425781 6.367188 15.886719 5.832031 15.886719 5.167969 C 15.886719 4.507812 16.425781 3.96875 17.089844 3.96875 L 20.476562 3.96875 C 21.140625 3.96875 21.679688 4.507812 21.679688 5.167969 C 21.679688 5.832031 21.140625 6.367188 20.476562 6.367188 Z M 17.089844 4.433594 C 16.679688 4.433594 16.347656 4.761719 16.347656 5.167969 C 16.347656 5.574219 16.679688 5.90625 17.089844 5.90625 L 20.476562 5.90625 C 20.882812 5.90625 21.214844 5.574219 21.214844 5.167969 C 21.214844 4.761719 20.882812 4.433594 20.476562 4.433594 Z M 22.53125 14.976562 L 15.035156 14.976562 C 14.929688 14.976562 14.839844 14.90625 14.8125 14.804688 L 12.859375 7.5625 C 12.753906 7.164062 12.835938 6.75 13.085938 6.421875 C 13.339844 6.09375 13.722656 5.90625 14.132812 5.90625 L 23.429688 5.90625 C 23.84375 5.90625 24.226562 6.09375 24.476562 6.421875 C 24.730469 6.75 24.8125 7.164062 24.703125 7.5625 L 22.75 14.804688 C 22.726562 14.90625 22.636719 14.976562 22.53125 14.976562 Z M 15.214844 14.515625 L 22.351562 14.515625 L 24.257812 7.441406 C 24.328125 7.183594 24.273438 6.914062 24.109375 6.703125 C 23.945312 6.488281 23.699219 6.367188 23.429688 6.367188 L 14.136719 6.367188 C 13.867188 6.367188 13.617188 6.488281 13.453125 6.703125 C 13.292969 6.914062 13.238281 7.183594 13.308594 7.441406 Z M 15.75 12.378906 C 15.875 12.34375 15.949219 12.21875 15.914062 12.09375 L 15.058594 8.921875 C 15.027344 8.796875 14.898438 8.726562 14.777344 8.757812 C 14.652344 8.789062 14.578125 8.917969 14.613281 9.039062 L 15.46875 12.214844 C 15.496094 12.316406 15.589844 12.386719 15.691406 12.386719 C 15.710938 12.386719 15.730469 12.382812 15.75 12.378906 Z M 19.632812 4.433594 L 18.207031 4.433594 C 18.078125 4.433594 17.976562 4.328125 17.976562 4.203125 L 17.976562 3.183594 L 16.953125 3.183594 C 16.824219 3.183594 16.722656 3.078125 16.722656 2.953125 L 16.722656 1.53125 C 16.722656 1.40625 16.824219 1.300781 16.953125 1.300781 L 17.976562 1.300781 L 17.976562 0.28125 C 17.976562 0.15625 18.078125 0.0507812 18.207031 0.0507812 L 19.632812 0.0507812 C 19.761719 0.0507812 19.867188 0.15625 19.867188 0.28125 L 19.867188 1.300781 L 20.886719 1.300781 C 21.015625 1.300781 21.121094 1.40625 21.121094 1.53125 L 21.121094 2.953125 C 21.121094 3.082031 21.015625 3.183594 20.886719 3.183594 L 19.867188 3.183594 L 19.867188 4.203125 C 19.867188 4.328125 19.761719 4.433594 19.632812 4.433594 Z M 18.4375 3.96875 L 19.402344 3.96875 L 19.402344 2.953125 C 19.402344 2.824219 19.507812 2.722656 19.632812 2.722656 L 20.65625 2.722656 L 20.65625 1.761719 L 19.632812 1.761719 C 19.507812 1.761719 19.402344 1.660156 19.402344 1.53125 L 19.402344 0.511719 L 18.4375 0.511719 L 18.4375 1.53125 C 18.4375 1.660156 18.335938 1.761719 18.207031 1.761719 L 17.183594 1.761719 L 17.183594 2.722656 L 18.207031 2.722656 C 18.335938 2.722656 18.4375 2.824219 18.4375 2.953125 Z M 18.4375 3.96875 " fill-opacity="1" fill-rule="nonzero"/></g></svg>