<svg xmlns="http://www.w3.org/2000/svg" xmlns:xlink="http://www.w3.org/1999/xlink" width="50" zoomAndPan="magnify" viewBox="0 0 37.5 37.499999" height="50" preserveAspectRatio="xMidYMid meet" version="1.0"><defs><clipPath id="id1"><path d="M 8.011719 0 L 29.761719 0 L 29.761719 37.007812 L 8.011719 37.007812 Z M 8.011719 0 " clip-rule="nonzero"/></clipPath><clipPath id="id2"><path d="M 8.011719 0 L 28 0 L 28 26 L 8.011719 26 Z M 8.011719 0 " clip-rule="nonzero"/></clipPath><clipPath id="id3"><path d="M 8.011719 26 L 29.761719 26 L 29.761719 36 L 8.011719 36 Z M 8.011719 26 " clip-rule="nonzero"/></clipPath><clipPath id="id4"><path d="M 8.011719 35 L 29.761719 35 L 29.761719 37.007812 L 8.011719 37.007812 Z M 8.011719 35 " clip-rule="nonzero"/></clipPath></defs><g clip-path="url(#id1)"><path fill="#010101" d="M 29.527344 36.34375 C 29.527344 36.847656 29.113281 37.253906 28.601562 37.253906 L 9.167969 37.253906 C 8.660156 37.253906 8.246094 36.847656 8.246094 36.34375 C 8.246094 35.839844 8.660156 35.433594 9.167969 35.433594 L 28.601562 35.433594 C 29.113281 35.429688 29.527344 35.839844 29.527344 36.34375 Z M 28.769531 33.941406 L 28.769531 33.9375 C 28.769531 33.414062 28.507812 32.929688 28.082031 32.664062 L 26.402344 31.121094 C 25.207031 30.023438 24.484375 28.460938 24.398438 26.789062 L 13.0625 26.742188 C 13.0625 28.503906 12.347656 30.183594 11.09375 31.359375 L 9.691406 32.671875 C 9.265625 32.9375 9.003906 33.425781 9.003906 33.949219 C 9.003906 34.769531 9.632812 35.433594 10.410156 35.433594 L 27.363281 35.425781 C 28.140625 35.421875 28.769531 34.757812 28.769531 33.941406 Z M 24.847656 24.949219 L 24.996094 24.949219 C 24.996094 24.949219 24.207031 23.765625 23.777344 21.941406 L 23.957031 20.972656 C 24.324219 20.179688 25.121094 20.269531 25.121094 20.269531 C 25.121094 19.480469 25.386719 18.722656 25.722656 17.765625 C 26.207031 16.386719 26.808594 14.675781 26.808594 12.195312 C 26.808594 7.71875 23.199219 2.917969 21.851562 1.632812 C 21.644531 1.417969 21.066406 0.851562 20.320312 0.273438 L 18.960938 1.0625 C 19.050781 1.125 19.136719 1.191406 19.226562 1.253906 L 18.941406 1.074219 L 18.960938 1.0625 C 18.460938 0.710938 17.917969 0.394531 17.421875 0.257812 C 17.628906 1.320312 17.308594 1.992188 17.308594 1.992188 C 16.949219 2.496094 15.113281 3.226562 13.78125 4.394531 C 12.925781 5.140625 10.589844 7.015625 9.019531 8.261719 C 8.15625 8.949219 8.058594 10.0625 8.792969 10.84375 C 9.515625 11.613281 10.824219 11.828125 11.847656 11.335938 C 12.464844 11.035156 13.144531 10.765625 13.671875 10.703125 C 14.976562 10.542969 15.808594 10.953125 16.867188 10.542969 C 17.921875 10.128906 18.726562 9.101562 18.726562 9.101562 C 18.726562 13.328125 11.0625 15.296875 11.0625 20.828125 C 11.0625 23.730469 13.023438 24.949219 13.023438 24.949219 L 12.734375 24.949219 C 12.234375 24.949219 11.824219 25.347656 11.824219 25.84375 C 11.824219 26.339844 12.230469 26.742188 12.734375 26.742188 L 24.851562 26.742188 C 25.351562 26.742188 25.757812 26.339844 25.757812 25.84375 C 25.757812 25.347656 25.351562 24.949219 24.847656 24.949219 Z M 24.847656 24.949219 " fill-opacity="1" fill-rule="nonzero"/></g><g clip-path="url(#id2)"><path fill="#fffffb" d="M 25.039062 5.605469 C 24.007812 3.753906 22.777344 2.191406 22.019531 1.46875 C 21.800781 1.25 21.21875 0.675781 20.460938 0.0898438 C 20.386719 0.03125 20.28125 0.0234375 20.199219 0.0703125 L 18.972656 0.785156 C 18.488281 0.457031 17.96875 0.167969 17.484375 0.03125 C 17.40625 0.0117188 17.320312 0.03125 17.261719 0.0820312 C 17.203125 0.136719 17.175781 0.21875 17.1875 0.296875 C 17.359375 1.171875 17.148438 1.765625 17.105469 1.875 C 16.949219 2.070312 16.453125 2.359375 15.929688 2.660156 C 15.230469 3.070312 14.355469 3.578125 13.625 4.21875 C 12.75 4.984375 10.273438 6.964844 8.871094 8.082031 C 8.394531 8.460938 8.113281 8.972656 8.070312 9.523438 C 8.03125 10.054688 8.226562 10.582031 8.621094 11 C 9.414062 11.839844 10.84375 12.074219 11.949219 11.542969 C 12.679688 11.1875 13.269531 10.984375 13.699219 10.929688 C 14.222656 10.867188 14.667969 10.898438 15.097656 10.929688 C 15.710938 10.972656 16.289062 11.011719 16.949219 10.753906 C 17.550781 10.519531 18.066406 10.105469 18.421875 9.769531 C 18.089844 11.324219 16.644531 12.609375 15.121094 13.957031 C 13.109375 15.746094 10.828125 17.769531 10.828125 20.828125 C 10.828125 23.824219 12.8125 25.089844 12.898438 25.140625 C 12.933594 25.164062 12.976562 25.175781 13.023438 25.175781 L 24.996094 25.175781 C 25.082031 25.175781 25.160156 25.128906 25.199219 25.054688 C 25.242188 24.980469 25.238281 24.886719 25.1875 24.816406 C 25.179688 24.800781 24.425781 23.660156 24.011719 21.910156 C 24.015625 21.359375 24.148438 20.960938 24.410156 20.726562 C 24.710938 20.460938 25.09375 20.496094 25.09375 20.496094 C 25.160156 20.503906 25.226562 20.484375 25.277344 20.4375 C 25.328125 20.394531 25.355469 20.332031 25.355469 20.265625 C 25.355469 19.515625 25.617188 18.773438 25.945312 17.835938 C 26.433594 16.441406 27.039062 14.710938 27.039062 12.191406 C 27.039062 9.714844 25.953125 7.242188 25.039062 5.605469 Z M 13.09375 24.714844 C 12.785156 24.5 11.296875 23.328125 11.296875 20.828125 C 11.296875 17.980469 13.398438 16.109375 15.4375 14.304688 C 17.25 12.695312 18.960938 11.175781 18.960938 9.101562 C 18.960938 9.003906 18.894531 8.914062 18.800781 8.882812 C 18.707031 8.851562 18.601562 8.882812 18.539062 8.960938 C 18.53125 8.96875 17.757812 9.945312 16.777344 10.328125 C 16.214844 10.546875 15.710938 10.511719 15.128906 10.46875 C 14.699219 10.4375 14.210938 10.402344 13.640625 10.472656 C 13.160156 10.53125 12.519531 10.75 11.742188 11.128906 C 10.8125 11.574219 9.621094 11.382812 8.964844 10.6875 C 8.660156 10.363281 8.507812 9.960938 8.535156 9.554688 C 8.566406 9.136719 8.792969 8.738281 9.164062 8.441406 C 10.878906 7.078125 13.097656 5.296875 13.933594 4.566406 C 14.632812 3.957031 15.484375 3.460938 16.167969 3.058594 C 16.824219 2.675781 17.300781 2.398438 17.496094 2.125 C 17.507812 2.113281 17.511719 2.101562 17.519531 2.089844 C 17.53125 2.0625 17.792969 1.5 17.707031 0.601562 C 18.046875 0.746094 18.832031 1.285156 18.890625 1.296875 C 19.804688 1.953125 20.570312 2.734375 20.585938 2.746094 C 20.585938 2.75 20.589844 2.75 20.59375 2.753906 C 21.695312 3.792969 24.902344 8.042969 24.902344 11.824219 C 24.902344 13.953125 24.394531 15.402344 23.945312 16.683594 C 23.582031 17.714844 23.269531 18.605469 23.269531 19.648438 C 23.269531 22.070312 24.160156 23.957031 24.582031 24.714844 Z M 25.5 17.6875 C 25.1875 18.578125 24.9375 19.296875 24.894531 20.042969 C 24.683594 20.066406 24.375 20.144531 24.105469 20.382812 C 23.984375 20.488281 23.886719 20.613281 23.804688 20.757812 C 23.761719 20.40625 23.738281 20.035156 23.738281 19.652344 C 23.738281 18.6875 24.039062 17.828125 24.386719 16.839844 C 24.847656 15.523438 25.371094 14.03125 25.371094 11.828125 C 25.371094 7.898438 22.0625 3.503906 20.917969 2.421875 C 20.847656 2.351562 20.203125 1.703125 19.386719 1.085938 L 20.296875 0.554688 C 20.96875 1.085938 21.484375 1.59375 21.6875 1.796875 C 22.992188 3.039062 26.574219 7.8125 26.574219 12.195312 C 26.574219 14.636719 25.980469 16.328125 25.5 17.6875 Z M 25.5 17.6875 " fill-opacity="1" fill-rule="nonzero"/></g><g clip-path="url(#id3)"><path fill="#fffffb" d="M 10.410156 35.664062 C 9.96875 35.664062 9.554688 35.480469 9.246094 35.15625 C 8.9375 34.832031 8.769531 34.402344 8.769531 33.949219 C 8.769531 33.355469 9.066406 32.796875 9.546875 32.488281 L 10.933594 31.1875 C 12.136719 30.0625 12.828125 28.441406 12.828125 26.742188 C 12.828125 26.679688 12.851562 26.621094 12.898438 26.578125 C 12.941406 26.535156 13 26.507812 13.0625 26.507812 L 24.398438 26.558594 C 24.523438 26.558594 24.628906 26.65625 24.632812 26.777344 C 24.714844 28.378906 25.417969 29.902344 26.5625 30.953125 L 28.222656 32.480469 C 28.707031 32.789062 29.003906 33.347656 29.003906 33.9375 C 29.003906 34.886719 28.269531 35.65625 27.363281 35.65625 Z M 13.292969 26.972656 C 13.230469 28.714844 12.496094 30.363281 11.257812 31.523438 L 9.855469 32.839844 C 9.84375 32.847656 9.832031 32.859375 9.816406 32.867188 C 9.460938 33.089844 9.238281 33.503906 9.238281 33.949219 C 9.238281 34.285156 9.363281 34.601562 9.585938 34.839844 C 9.808594 35.074219 10.101562 35.199219 10.410156 35.199219 L 27.363281 35.191406 C 28.007812 35.191406 28.535156 34.632812 28.535156 33.941406 C 28.535156 33.496094 28.3125 33.082031 27.953125 32.859375 C 27.941406 32.851562 27.929688 32.84375 27.921875 32.832031 L 26.242188 31.292969 C 25.0625 30.207031 24.316406 28.660156 24.179688 27.019531 Z M 9.691406 32.671875 Z M 9.691406 32.671875 " fill-opacity="1" fill-rule="nonzero"/></g><g clip-path="url(#id4)"><path fill="#fffffb" d="M 28.601562 37.484375 L 9.167969 37.484375 C 8.53125 37.484375 8.011719 36.972656 8.011719 36.34375 C 8.011719 35.714844 8.53125 35.199219 9.167969 35.199219 L 28.601562 35.199219 C 29.242188 35.199219 29.761719 35.714844 29.761719 36.34375 C 29.761719 36.972656 29.242188 37.484375 28.601562 37.484375 Z M 9.167969 35.664062 C 8.789062 35.664062 8.480469 35.96875 8.480469 36.34375 C 8.480469 36.714844 8.789062 37.023438 9.167969 37.023438 L 28.601562 37.023438 C 28.984375 37.023438 29.292969 36.71875 29.292969 36.34375 C 29.292969 35.96875 28.984375 35.664062 28.601562 35.664062 Z M 9.167969 35.664062 " fill-opacity="1" fill-rule="nonzero"/></g><path fill="#fffffb" d="M 24.847656 26.972656 L 12.734375 26.972656 C 12.105469 26.972656 11.589844 26.464844 11.589844 25.84375 C 11.589844 25.222656 12.101562 24.714844 12.734375 24.714844 L 24.847656 24.714844 C 25.480469 24.714844 25.992188 25.222656 25.992188 25.84375 C 25.992188 26.464844 25.480469 26.972656 24.847656 26.972656 Z M 12.734375 25.179688 C 12.363281 25.179688 12.058594 25.476562 12.058594 25.84375 C 12.058594 26.210938 12.363281 26.511719 12.734375 26.511719 L 24.847656 26.511719 C 25.222656 26.511719 25.523438 26.210938 25.523438 25.84375 C 25.523438 25.476562 25.222656 25.179688 24.847656 25.179688 Z M 12.734375 25.179688 " fill-opacity="1" fill-rule="nonzero"/><path fill="#fffffb" d="M 14.515625 6.074219 C 14.550781 6.246094 14.902344 6.179688 15.210938 6.097656 C 15.519531 6.019531 15.695312 5.875 15.6875 5.648438 C 15.683594 5.476562 15.539062 5.277344 15.234375 5.355469 C 14.921875 5.4375 14.457031 5.804688 14.515625 6.074219 Z M 14.515625 6.074219 " fill-opacity="1" fill-rule="nonzero"/><path fill="#fffffb" d="M 9.433594 9.628906 C 9.304688 9.628906 9.199219 9.527344 9.199219 9.398438 C 9.199219 8.972656 9.714844 8.789062 9.773438 8.769531 C 9.894531 8.730469 10.027344 8.796875 10.070312 8.917969 C 10.109375 9.039062 10.042969 9.167969 9.921875 9.207031 C 9.808594 9.246094 9.667969 9.339844 9.667969 9.398438 C 9.667969 9.527344 9.5625 9.628906 9.433594 9.628906 Z M 9.433594 9.628906 " fill-opacity="1" fill-rule="nonzero"/></svg>