<svg xmlns="http://www.w3.org/2000/svg" xmlns:xlink="http://www.w3.org/1999/xlink" width="50" zoomAndPan="magnify" viewBox="0 0 37.5 37.499999" height="50" preserveAspectRatio="xMidYMid meet" version="1.0"><defs><clipPath id="id1"><path d="M 8.316406 0 L 29.316406 0 L 29.316406 37.007812 L 8.316406 37.007812 Z M 8.316406 0 " clip-rule="nonzero"/></clipPath></defs><g clip-path="url(#id1)"><path fill="#ffffff" d="M 14.34375 12.171875 C 12.878906 10.910156 11.957031 9.035156 11.984375 6.949219 C 12.03125 3.246094 15.117188 0.234375 18.847656 0.25 C 22.609375 0.265625 25.652344 3.300781 25.652344 7.039062 C 25.652344 9.03125 24.773438 10.929688 23.398438 12.171875 Z M 25.617188 13.316406 C 25.617188 12.683594 25.101562 12.167969 24.460938 12.167969 L 13.167969 12.167969 C 12.53125 12.167969 12.015625 12.683594 12.015625 13.316406 C 12.015625 13.949219 12.53125 14.464844 13.167969 14.464844 L 24.460938 14.464844 C 25.101562 14.464844 25.617188 13.949219 25.617188 13.316406 Z M 22.617188 26.808594 L 21.863281 14.464844 L 15.769531 14.464844 L 15.015625 26.808594 Z M 24.054688 26.808594 L 13.578125 26.808594 L 13.578125 29.480469 L 9.402344 32.523438 C 8.964844 32.78125 8.695312 33.25 8.695312 33.753906 C 8.695312 34.542969 9.339844 35.183594 10.136719 35.183594 L 27.496094 35.175781 C 28.289062 35.175781 28.9375 34.535156 28.9375 33.746094 C 28.9375 33.238281 28.667969 32.773438 28.230469 32.515625 L 24.191406 29.375 Z M 29.070312 36.226562 C 29.070312 35.652344 28.601562 35.183594 28.023438 35.183594 L 9.609375 35.183594 C 9.03125 35.183594 8.558594 35.652344 8.558594 36.226562 C 8.558594 36.800781 9.03125 37.269531 9.609375 37.269531 L 28.023438 37.269531 C 28.601562 37.269531 29.070312 36.800781 29.070312 36.226562 Z M 29.070312 36.226562 " fill-opacity="1" fill-rule="nonzero"/><path fill="#010101" d="M 23.484375 12.402344 L 14.257812 12.402344 L 14.191406 12.347656 C 12.613281 10.988281 11.722656 9.019531 11.75 6.949219 C 11.796875 3.109375 14.980469 0 18.847656 0.0195312 C 22.726562 0.0351562 25.882812 3.183594 25.882812 7.039062 C 25.882812 9.042969 25.011719 11.027344 23.554688 12.34375 Z M 14.433594 11.941406 L 23.304688 11.941406 C 24.628906 10.710938 25.417969 8.886719 25.417969 7.039062 C 25.417969 3.4375 22.46875 0.496094 18.847656 0.480469 C 15.234375 0.464844 12.261719 3.367188 12.214844 6.953125 C 12.191406 8.863281 13 10.675781 14.433594 11.941406 Z M 14.019531 5.910156 C 14.378906 4.402344 15.453125 3.136719 16.898438 2.53125 C 17.015625 2.480469 17.074219 2.34375 17.023438 2.226562 C 16.972656 2.109375 16.835938 2.050781 16.71875 2.101562 C 15.136719 2.765625 13.960938 4.152344 13.566406 5.804688 C 13.539062 5.929688 13.617188 6.054688 13.742188 6.085938 C 13.757812 6.089844 13.777344 6.089844 13.792969 6.089844 C 13.898438 6.089844 13.996094 6.019531 14.019531 5.910156 Z M 14.734375 10.183594 C 14.839844 10.109375 14.863281 9.964844 14.789062 9.859375 C 14.488281 9.4375 14.257812 8.96875 14.105469 8.476562 C 14.066406 8.355469 13.9375 8.285156 13.816406 8.324219 C 13.691406 8.359375 13.621094 8.488281 13.660156 8.613281 C 13.828125 9.152344 14.078125 9.664062 14.410156 10.125 C 14.457031 10.191406 14.527344 10.222656 14.601562 10.222656 C 14.648438 10.222656 14.695312 10.210938 14.734375 10.183594 Z M 24.460938 14.695312 L 13.167969 14.695312 C 12.40625 14.695312 11.78125 14.078125 11.78125 13.316406 C 11.78125 12.554688 12.402344 11.9375 13.167969 11.9375 L 24.460938 11.9375 C 25.226562 11.9375 25.851562 12.554688 25.851562 13.316406 C 25.851562 14.078125 25.226562 14.695312 24.460938 14.695312 Z M 13.167969 12.398438 C 12.660156 12.398438 12.246094 12.8125 12.246094 13.316406 C 12.246094 13.820312 12.660156 14.234375 13.167969 14.234375 L 24.460938 14.234375 C 24.972656 14.234375 25.386719 13.820312 25.386719 13.316406 C 25.386719 12.8125 24.972656 12.398438 24.460938 12.398438 Z M 22.617188 27.039062 L 15.015625 27.039062 C 14.949219 27.039062 14.886719 27.011719 14.84375 26.964844 C 14.800781 26.917969 14.777344 26.855469 14.78125 26.792969 L 15.535156 14.449219 C 15.542969 14.328125 15.644531 14.230469 15.769531 14.230469 L 21.863281 14.230469 C 21.988281 14.230469 22.089844 14.328125 22.097656 14.449219 L 22.851562 26.792969 C 22.855469 26.855469 22.832031 26.917969 22.789062 26.964844 C 22.746094 27.011719 22.683594 27.039062 22.617188 27.039062 Z M 15.261719 26.574219 L 22.371094 26.574219 L 21.644531 14.695312 L 15.988281 14.695312 Z M 10.136719 35.414062 C 9.691406 35.414062 9.269531 35.242188 8.953125 34.929688 C 8.636719 34.617188 8.464844 34.199219 8.464844 33.753906 C 8.464844 33.171875 8.773438 32.628906 9.273438 32.332031 L 13.34375 29.363281 L 13.34375 26.804688 C 13.34375 26.679688 13.449219 26.574219 13.578125 26.574219 L 24.054688 26.574219 C 24.179688 26.574219 24.28125 26.671875 24.289062 26.792969 L 24.417969 29.257812 L 28.363281 32.324219 C 28.859375 32.625 29.167969 33.167969 29.167969 33.746094 C 29.167969 34.664062 28.417969 35.40625 27.496094 35.410156 Z M 13.808594 27.039062 L 13.808594 29.480469 C 13.808594 29.554688 13.773438 29.625 13.714844 29.667969 L 9.539062 32.710938 C 9.53125 32.714844 9.527344 32.71875 9.519531 32.722656 C 9.15625 32.9375 8.929688 33.332031 8.929688 33.753906 C 8.929688 34.074219 9.054688 34.375 9.28125 34.601562 C 9.511719 34.828125 9.8125 34.953125 10.136719 34.953125 L 27.496094 34.945312 C 28.164062 34.945312 28.703125 34.40625 28.703125 33.746094 C 28.703125 33.324219 28.476562 32.929688 28.113281 32.714844 C 28.105469 32.710938 28.09375 32.703125 28.085938 32.699219 L 24.046875 29.554688 C 23.996094 29.515625 23.960938 29.453125 23.957031 29.386719 L 23.832031 27.039062 Z M 28.023438 37.5 L 9.609375 37.5 C 8.902344 37.5 8.328125 36.929688 8.328125 36.226562 C 8.328125 35.523438 8.902344 34.953125 9.609375 34.953125 L 28.023438 34.953125 C 28.730469 34.953125 29.304688 35.523438 29.304688 36.226562 C 29.304688 36.929688 28.730469 37.5 28.023438 37.5 Z M 9.609375 35.414062 C 9.160156 35.414062 8.792969 35.78125 8.792969 36.226562 C 8.792969 36.671875 9.160156 37.039062 9.609375 37.039062 L 28.023438 37.039062 C 28.472656 37.039062 28.839844 36.671875 28.839844 36.226562 C 28.839844 35.78125 28.472656 35.414062 28.023438 35.414062 Z M 9.609375 35.414062 " fill-opacity="1" fill-rule="nonzero"/></g></svg>