<svg xmlns="http://www.w3.org/2000/svg" xmlns:xlink="http://www.w3.org/1999/xlink" width="50" zoomAndPan="magnify" viewBox="0 0 37.5 37.499999" height="50" preserveAspectRatio="xMidYMid meet" version="1.0"><defs><clipPath id="id1"><path d="M 12.214844 0 L 24.957031 0 L 24.957031 37.007812 L 12.214844 37.007812 Z M 12.214844 0 " clip-rule="nonzero"/></clipPath><clipPath id="id2"><path d="M 12.210938 0 L 24.960938 0 L 24.960938 37 L 12.210938 37 Z M 12.210938 0 " clip-rule="nonzero"/></clipPath></defs><g clip-path="url(#id1)"><path fill="#000000" d="M 20.121094 2.714844 C 20.449219 2.195312 20.257812 1.339844 19.941406 0.941406 C 19.433594 0.300781 18.378906 0.363281 17.777344 0.792969 C 17.515625 1.183594 17.335938 1.8125 17.453125 2.457031 C 17.535156 2.902344 17.9375 3.070312 18.101562 3.34375 C 18.089844 3.558594 17.9375 3.429688 17.921875 3.601562 C 17.640625 4.199219 17.378906 4.816406 17.058594 5.378906 C 16.996094 5.492188 17.199219 5.675781 16.984375 5.746094 C 16.128906 5.246094 14.378906 5.347656 13.597656 5.859375 C 14.359375 6.679688 15.992188 7.917969 15.796875 9.292969 C 15.523438 9.421875 15.246094 9.539062 15.257812 9.960938 C 15.375 10.195312 15.734375 10.1875 15.976562 10.292969 C 16.628906 11.828125 17.34375 13.351562 17.203125 15.539062 C 17.101562 17.070312 16.90625 18.566406 16.625 19.976562 C 16.308594 21.570312 15.851562 22.9375 15.4375 24.335938 C 14.785156 24.425781 14.210938 24.691406 14.320312 25.371094 C 14.421875 26 15.269531 25.894531 15.617188 26.332031 C 15.605469 26.417969 15.445312 26.355469 15.472656 26.480469 C 16.039062 27.597656 15.480469 28.839844 14.644531 29.4375 C 14.476562 29.558594 14.25 29.597656 14.066406 29.734375 C 13.132812 30.429688 12.8125 32.429688 13.238281 33.722656 C 13.277344 33.84375 13.449219 34.058594 13.417969 34.203125 C 13.355469 34.523438 12.613281 34.417969 12.664062 34.832031 C 12.695312 35.117188 13.316406 35.128906 13.417969 35.351562 C 13.464844 35.558594 13.253906 35.523438 13.347656 35.683594 C 13.558594 36.070312 13.589844 36.640625 13.851562 36.976562 C 17.007812 37.035156 20.492188 36.925781 23.507812 36.9375 C 23.570312 36.398438 23.917969 35.882812 23.832031 35.425781 C 23.992188 35.292969 24.359375 35.371094 24.515625 35.238281 C 24.578125 34.84375 24.054688 35.046875 23.941406 34.832031 C 24.539062 33.199219 23.902344 30.28125 22.789062 29.585938 C 22.386719 29.335938 22.203125 29.335938 21.996094 28.917969 C 21.785156 28.496094 21.457031 28.089844 21.453125 27.515625 C 21.453125 27.09375 21.722656 26.75 21.632812 26.332031 C 22.003906 26.011719 22.839844 25.867188 22.894531 25.296875 C 22.949219 24.769531 22.382812 24.671875 21.921875 24.484375 C 20.753906 22.230469 20.070312 18.632812 20.230469 14.949219 C 20.277344 13.835938 20.296875 13.128906 20.445312 12.066406 C 20.53125 11.433594 20.605469 10.65625 20.878906 10.402344 C 21.0625 10.230469 21.519531 10.25 21.632812 9.996094 C 21.6875 9.449219 21.253906 9.402344 21.058594 9.109375 C 21.054688 8.933594 21.3125 9.027344 21.308594 8.851562 C 21.625 7.300781 22.386719 6.210938 23.4375 5.414062 C 22.570312 5.25 21.5 5.03125 20.734375 5.414062 C 20.449219 5.554688 20.398438 5.898438 20.050781 5.859375 C 19.925781 5.636719 20.144531 5.570312 20.15625 5.378906 C 19.855469 4.808594 19.601562 4.199219 19.4375 3.492188 C 19.390625 3.378906 19.164062 3.449219 19.183594 3.269531 C 19.472656 2.996094 19.925781 3.023438 20.121094 2.714844 Z M 19.832031 3.457031 C 20.027344 3.996094 20.234375 4.523438 20.445312 5.042969 C 21 4.8125 21.582031 4.691406 22.390625 4.75 C 23 4.792969 24.066406 4.980469 24.085938 5.414062 C 24.097656 5.699219 23.773438 5.730469 23.542969 5.894531 C 22.621094 6.550781 22.066406 7.679688 21.777344 8.960938 C 21.855469 9.175781 22.132812 9.238281 22.210938 9.515625 C 22.460938 10.390625 21.5625 10.707031 21.09375 11.03125 C 20.273438 15.40625 20.636719 21.101562 22.355469 24.1875 C 23.027344 24.292969 23.546875 24.839844 23.328125 25.554688 C 23.175781 26.050781 22.539062 26.273438 22.175781 26.554688 C 22.078125 26.90625 21.921875 27.164062 21.921875 27.515625 C 21.925781 28.09375 22.355469 28.476562 22.464844 28.957031 C 24.210938 29.644531 24.941406 32.0625 24.515625 34.5 C 24.808594 34.664062 25.136719 35.246094 24.839844 35.609375 C 24.734375 35.742188 24.546875 35.769531 24.300781 35.757812 C 24.0625 36.195312 24.046875 37.171875 23.542969 37.382812 C 23.015625 37.601562 21.203125 37.417969 20.515625 37.417969 C 19.53125 37.417969 18.503906 37.457031 17.597656 37.457031 C 17.023438 37.457031 16.355469 37.367188 15.6875 37.417969 C 15.078125 37.46875 14.144531 37.589844 13.707031 37.382812 C 13.167969 37.128906 13.140625 36.078125 12.914062 35.609375 C 12.6875 35.382812 12.300781 35.335938 12.230469 34.980469 C 12.132812 34.5 12.480469 34.203125 12.878906 34.058594 C 12.078125 32.371094 12.839844 29.480469 14.429688 29.066406 C 15.0625 28.65625 15.484375 27.433594 15.039062 26.480469 C 13.554688 26.363281 13.46875 23.992188 15.078125 23.96875 C 16.246094 20.5 17.792969 14.277344 15.617188 10.664062 C 14.644531 10.707031 14.605469 9.160156 15.4375 9 C 15.097656 8.074219 14.433594 7.261719 13.78125 6.632812 C 13.578125 6.441406 13.035156 6.1875 13.023438 5.894531 C 13.007812 5.515625 13.761719 5.1875 14.140625 5.082031 C 14.988281 4.84375 16.015625 4.882812 16.699219 5.117188 C 17.019531 4.597656 17.28125 4.015625 17.527344 3.417969 C 17.3125 3.074219 17.054688 2.726562 17.023438 2.234375 C 16.949219 1.070312 17.511719 0.167969 18.535156 0.0195312 C 19.609375 -0.140625 20.492188 0.777344 20.625 1.679688 C 20.753906 2.546875 20.378906 3.164062 19.832031 3.457031 " fill-opacity="1" fill-rule="evenodd"/></g><g clip-path="url(#id2)"><path fill="#fffffb" d="M 15.796875 35.535156 C 15.632812 35.546875 15.332031 35.511719 15.257812 35.71875 C 16.269531 35.851562 17.46875 35.792969 18.609375 35.792969 C 19.738281 35.792969 20.894531 35.800781 21.742188 35.496094 C 19.964844 35.484375 17.675781 35.410156 15.796875 35.535156 Z M 17.453125 34.574219 C 17.0625 34.59375 16.53125 34.480469 16.265625 34.757812 C 17.925781 34.84375 20.046875 34.953125 21.5625 34.796875 C 20.429688 34.542969 18.8125 34.507812 17.453125 34.574219 Z M 16.589844 29.140625 C 16.554688 29.179688 16.457031 29.152344 16.480469 29.253906 C 16.550781 29.402344 16.789062 29.386719 16.914062 29.398438 C 18.207031 29.519531 19.800781 29.566406 21.023438 29.546875 C 19.828125 29.144531 18.109375 29.085938 16.589844 29.140625 Z M 17.777344 26.40625 C 17.527344 26.4375 17.171875 26.375 17.09375 26.628906 C 18.101562 26.769531 19.339844 26.519531 20.375 26.441406 C 19.75 26.152344 18.519531 26.3125 17.777344 26.40625 Z M 16.84375 24.410156 C 16.839844 24.457031 16.796875 24.460938 16.804688 24.519531 C 17.878906 24.804688 19.488281 24.796875 20.554688 24.59375 C 19.429688 24.441406 18.035156 24.371094 16.84375 24.410156 Z M 17.453125 10.367188 C 17.453125 10.417969 17.472656 10.449219 17.492188 10.476562 C 18.210938 10.785156 19.589844 10.691406 20.300781 10.441406 C 19.519531 10.230469 18.316406 10.414062 17.453125 10.367188 Z M 18.066406 9.257812 C 17.71875 9.273438 17.214844 9.253906 16.984375 9.441406 C 17.144531 9.632812 17.472656 9.554688 17.742188 9.554688 C 18.730469 9.554688 19.800781 9.578125 20.480469 9.292969 C 19.808594 9.167969 18.867188 9.21875 18.066406 9.257812 Z M 19.183594 3.269531 C 19.164062 3.449219 19.390625 3.378906 19.4375 3.492188 C 19.601562 4.199219 19.855469 4.808594 20.15625 5.378906 C 20.144531 5.570312 19.925781 5.636719 20.050781 5.859375 C 20.398438 5.898438 20.449219 5.554688 20.734375 5.414062 C 21.5 5.03125 22.570312 5.25 23.4375 5.414062 C 22.386719 6.210938 21.625 7.300781 21.308594 8.851562 C 21.3125 9.027344 21.054688 8.933594 21.058594 9.109375 C 21.253906 9.402344 21.6875 9.449219 21.632812 9.996094 C 21.519531 10.25 21.0625 10.230469 20.878906 10.402344 C 20.605469 10.65625 20.53125 11.433594 20.445312 12.066406 C 20.296875 13.128906 20.277344 13.835938 20.230469 14.949219 C 20.070312 18.632812 20.753906 22.230469 21.921875 24.484375 C 22.382812 24.671875 22.949219 24.769531 22.894531 25.296875 C 22.839844 25.867188 22.003906 26.011719 21.632812 26.332031 C 21.722656 26.75 21.453125 27.09375 21.453125 27.515625 C 21.457031 28.089844 21.785156 28.496094 21.996094 28.917969 C 22.203125 29.335938 22.386719 29.335938 22.789062 29.585938 C 23.902344 30.28125 24.539062 33.199219 23.941406 34.832031 C 24.054688 35.046875 24.578125 34.84375 24.515625 35.238281 C 24.359375 35.371094 23.992188 35.292969 23.832031 35.425781 C 23.917969 35.882812 23.570312 36.398438 23.507812 36.9375 C 20.492188 36.925781 17.007812 37.035156 13.851562 36.976562 C 13.589844 36.640625 13.558594 36.070312 13.347656 35.683594 C 13.253906 35.523438 13.464844 35.558594 13.417969 35.351562 C 13.316406 35.128906 12.695312 35.117188 12.664062 34.832031 C 12.613281 34.417969 13.355469 34.523438 13.417969 34.203125 C 13.449219 34.058594 13.277344 33.84375 13.238281 33.722656 C 12.8125 32.429688 13.132812 30.429688 14.066406 29.734375 C 14.25 29.597656 14.476562 29.558594 14.644531 29.4375 C 15.480469 28.839844 16.039062 27.597656 15.472656 26.480469 C 15.445312 26.355469 15.605469 26.417969 15.617188 26.332031 C 15.269531 25.894531 14.421875 26 14.320312 25.371094 C 14.210938 24.691406 14.785156 24.425781 15.4375 24.335938 C 15.851562 22.9375 16.308594 21.570312 16.625 19.976562 C 16.90625 18.566406 17.101562 17.070312 17.203125 15.539062 C 17.34375 13.351562 16.628906 11.828125 15.976562 10.292969 C 15.734375 10.1875 15.375 10.195312 15.257812 9.960938 C 15.246094 9.539062 15.523438 9.421875 15.796875 9.292969 C 15.992188 7.917969 14.359375 6.679688 13.597656 5.859375 C 14.378906 5.347656 16.128906 5.246094 16.984375 5.746094 C 17.199219 5.675781 16.996094 5.492188 17.058594 5.378906 C 17.378906 4.816406 17.640625 4.199219 17.921875 3.601562 C 17.9375 3.429688 18.089844 3.558594 18.101562 3.34375 C 17.9375 3.070312 17.535156 2.902344 17.453125 2.457031 C 17.335938 1.8125 17.515625 1.183594 17.777344 0.792969 C 18.378906 0.363281 19.433594 0.300781 19.941406 0.941406 C 20.257812 1.339844 20.449219 2.195312 20.121094 2.714844 C 19.925781 3.023438 19.472656 2.996094 19.183594 3.269531 " fill-opacity="1" fill-rule="evenodd"/></g><path fill="#000000" d="M 20.480469 9.292969 C 19.800781 9.578125 18.730469 9.554688 17.742188 9.554688 C 17.472656 9.554688 17.144531 9.632812 16.984375 9.441406 C 17.214844 9.253906 17.71875 9.273438 18.066406 9.257812 C 18.867188 9.21875 19.808594 9.167969 20.480469 9.292969 " fill-opacity="1" fill-rule="evenodd"/><path fill="#000000" d="M 20.300781 10.441406 C 19.589844 10.691406 18.210938 10.785156 17.492188 10.476562 C 17.472656 10.449219 17.453125 10.417969 17.453125 10.367188 C 18.316406 10.414062 19.519531 10.230469 20.300781 10.441406 " fill-opacity="1" fill-rule="evenodd"/><path fill="#000000" d="M 20.554688 24.59375 C 19.488281 24.796875 17.878906 24.804688 16.804688 24.519531 C 16.796875 24.460938 16.839844 24.457031 16.84375 24.410156 C 18.035156 24.371094 19.429688 24.441406 20.554688 24.59375 " fill-opacity="1" fill-rule="evenodd"/><path fill="#000000" d="M 20.375 26.441406 C 19.339844 26.519531 18.101562 26.769531 17.09375 26.628906 C 17.171875 26.375 17.527344 26.4375 17.777344 26.40625 C 18.519531 26.3125 19.75 26.152344 20.375 26.441406 " fill-opacity="1" fill-rule="evenodd"/><path fill="#000000" d="M 21.023438 29.546875 C 19.800781 29.5625 18.207031 29.519531 16.914062 29.398438 C 16.789062 29.386719 16.550781 29.402344 16.480469 29.253906 C 16.457031 29.152344 16.554688 29.179688 16.589844 29.140625 C 18.109375 29.085938 19.828125 29.144531 21.023438 29.546875 " fill-opacity="1" fill-rule="evenodd"/><path fill="#000000" d="M 21.5625 34.796875 C 20.046875 34.953125 17.925781 34.84375 16.265625 34.757812 C 16.53125 34.480469 17.0625 34.59375 17.453125 34.574219 C 18.8125 34.507812 20.429688 34.542969 21.5625 34.796875 " fill-opacity="1" fill-rule="evenodd"/><path fill="#000000" d="M 21.742188 35.496094 C 20.894531 35.800781 19.738281 35.792969 18.609375 35.792969 C 17.46875 35.792969 16.269531 35.851562 15.257812 35.71875 C 15.332031 35.511719 15.632812 35.546875 15.796875 35.535156 C 17.675781 35.410156 19.964844 35.484375 21.742188 35.496094 " fill-opacity="1" fill-rule="evenodd"/></svg>