<svg xmlns="http://www.w3.org/2000/svg" xmlns:xlink="http://www.w3.org/1999/xlink" width="50" zoomAndPan="magnify" viewBox="0 0 37.5 37.499999" height="50" preserveAspectRatio="xMidYMid meet" version="1.0"><defs><clipPath id="id1"><path d="M 7.398438 0 L 29.898438 0 L 29.898438 37.007812 L 7.398438 37.007812 Z M 7.398438 0 " clip-rule="nonzero"/></clipPath></defs><g clip-path="url(#id1)"><path fill="#ffffff" d="M 24.535156 26.753906 C 24.621094 28.519531 25.367188 29.628906 26.601562 30.789062 L 28.339844 32.417969 C 28.78125 32.699219 29.050781 33.210938 29.050781 33.765625 C 29.050781 34.632812 28.398438 35.335938 27.597656 35.335938 L 10.070312 35.34375 C 9.265625 35.34375 8.617188 34.640625 8.617188 33.773438 C 8.617188 33.222656 8.886719 32.707031 9.328125 32.425781 L 10.777344 31.035156 C 12.070312 29.800781 12.8125 28.59375 12.8125 26.726562 Z M 29.652344 36.304688 C 29.652344 35.773438 29.222656 35.34375 28.695312 35.34375 L 8.601562 35.34375 C 8.074219 35.34375 7.648438 35.773438 7.648438 36.304688 C 7.648438 36.835938 8.074219 37.269531 8.601562 37.269531 L 28.695312 37.269531 C 29.222656 37.269531 29.652344 36.835938 29.652344 36.304688 Z M 24.355469 26.742188 C 24.484375 26.742188 24.609375 26.710938 24.714844 26.652344 C 25.042969 26.476562 25.183594 26.074219 25.0625 25.71875 C 24.699219 24.636719 23.136719 19.585938 23.136719 12.953125 L 14.164062 12.953125 C 14.164062 19.585938 12.597656 24.636719 12.234375 25.71875 C 12.117188 26.074219 12.253906 26.476562 12.582031 26.652344 C 12.691406 26.710938 12.8125 26.742188 12.945312 26.742188 Z M 24.472656 11.898438 C 24.472656 11.3125 24 10.839844 23.421875 10.839844 L 13.878906 10.839844 C 13.296875 10.839844 12.828125 11.3125 12.828125 11.898438 C 12.828125 12.484375 13.296875 12.960938 13.878906 12.960938 L 23.421875 12.960938 C 24 12.960938 24.472656 12.484375 24.472656 11.898438 Z M 22.921875 0.230469 L 22.921875 2.214844 L 21.144531 2.214844 L 21.144531 0.230469 L 16.152344 0.230469 L 16.152344 2.214844 L 14.375 2.214844 L 14.375 0.230469 L 10.894531 0.230469 L 10.894531 8.054688 C 10.894531 9.308594 11.683594 10.429688 12.863281 10.839844 L 24.4375 10.839844 C 25.613281 10.429688 26.402344 9.308594 26.402344 8.054688 L 26.402344 0.230469 Z M 22.921875 0.230469 " fill-opacity="1" fill-rule="nonzero"/><path fill="#010101" d="M 10.070312 35.574219 C 9.617188 35.574219 9.191406 35.386719 8.875 35.042969 C 8.558594 34.703125 8.386719 34.253906 8.386719 33.773438 C 8.386719 33.152344 8.691406 32.570312 9.183594 32.242188 L 10.621094 30.871094 C 11.796875 29.742188 12.582031 28.605469 12.582031 26.726562 C 12.582031 26.667969 12.605469 26.605469 12.648438 26.5625 C 12.691406 26.519531 12.75 26.496094 12.8125 26.496094 L 24.535156 26.519531 C 24.65625 26.519531 24.757812 26.617188 24.765625 26.742188 C 24.847656 28.484375 25.625 29.550781 26.761719 30.617188 L 28.480469 32.234375 C 28.976562 32.558594 29.28125 33.144531 29.28125 33.765625 C 29.28125 34.757812 28.527344 35.566406 27.601562 35.566406 Z M 13.039062 26.960938 C 12.984375 28.59375 12.367188 29.839844 10.9375 31.203125 L 9.484375 32.59375 C 9.476562 32.605469 9.464844 32.613281 9.453125 32.621094 C 9.078125 32.859375 8.84375 33.300781 8.84375 33.773438 C 8.84375 34.132812 8.976562 34.472656 9.210938 34.726562 C 9.441406 34.972656 9.746094 35.109375 10.070312 35.109375 L 27.601562 35.101562 C 28.273438 35.101562 28.824219 34.503906 28.824219 33.765625 C 28.824219 33.292969 28.59375 32.851562 28.21875 32.613281 C 28.207031 32.605469 28.195312 32.59375 28.183594 32.585938 L 26.449219 30.957031 C 25.277344 29.859375 24.464844 28.753906 24.320312 26.984375 Z M 9.328125 32.425781 Z M 28.695312 37.5 L 8.601562 37.5 C 7.949219 37.5 7.417969 36.964844 7.417969 36.304688 C 7.417969 35.648438 7.949219 35.109375 8.601562 35.109375 L 28.695312 35.109375 C 29.347656 35.109375 29.878906 35.648438 29.878906 36.304688 C 29.878906 36.964844 29.347656 37.5 28.695312 37.5 Z M 8.601562 35.574219 C 8.203125 35.574219 7.878906 35.902344 7.878906 36.304688 C 7.878906 36.710938 8.203125 37.035156 8.601562 37.035156 L 28.695312 37.035156 C 29.097656 37.035156 29.421875 36.710938 29.421875 36.304688 C 29.421875 35.902344 29.097656 35.574219 28.695312 35.574219 Z M 24.355469 26.972656 L 12.945312 26.972656 C 12.945312 26.972656 12.945312 26.972656 12.941406 26.972656 C 12.78125 26.972656 12.621094 26.933594 12.476562 26.855469 C 12.058594 26.632812 11.863281 26.113281 12.019531 25.644531 C 12.335938 24.691406 13.933594 19.597656 13.933594 12.953125 C 13.933594 12.828125 14.035156 12.722656 14.164062 12.722656 L 23.136719 12.722656 C 23.261719 12.722656 23.367188 12.828125 23.367188 12.953125 C 23.367188 19.597656 24.960938 24.691406 25.28125 25.644531 C 25.4375 26.113281 25.242188 26.632812 24.820312 26.855469 C 24.679688 26.933594 24.519531 26.972656 24.355469 26.972656 Z M 12.945312 26.511719 L 24.355469 26.511719 C 24.445312 26.511719 24.53125 26.488281 24.609375 26.449219 C 24.828125 26.328125 24.933594 26.046875 24.847656 25.792969 C 24.527344 24.839844 22.945312 19.789062 22.910156 13.1875 L 14.390625 13.1875 C 14.355469 19.789062 12.773438 24.839844 12.453125 25.792969 C 12.367188 26.046875 12.46875 26.328125 12.691406 26.449219 C 12.769531 26.488281 12.855469 26.511719 12.945312 26.511719 Z M 23.421875 13.191406 L 13.878906 13.191406 C 13.171875 13.191406 12.597656 12.613281 12.597656 11.898438 C 12.597656 11.1875 13.171875 10.609375 13.878906 10.609375 L 23.421875 10.609375 C 24.125 10.609375 24.699219 11.1875 24.699219 11.898438 C 24.699219 12.613281 24.128906 13.191406 23.421875 13.191406 Z M 13.878906 11.070312 C 13.425781 11.070312 13.054688 11.441406 13.054688 11.898438 C 13.054688 12.355469 13.425781 12.726562 13.878906 12.726562 L 23.421875 12.726562 C 23.875 12.726562 24.242188 12.355469 24.242188 11.898438 C 24.242188 11.441406 23.871094 11.070312 23.421875 11.070312 Z M 24.476562 11.070312 L 12.824219 11.070312 L 12.789062 11.058594 C 11.519531 10.613281 10.667969 9.40625 10.667969 8.050781 L 10.667969 0 L 14.605469 0 L 14.605469 1.984375 L 15.921875 1.984375 L 15.921875 0 L 21.375 0 L 21.375 1.984375 L 22.695312 1.984375 L 22.695312 0 L 26.632812 0 L 26.632812 8.054688 C 26.632812 9.40625 25.78125 10.613281 24.511719 11.058594 Z M 12.902344 10.605469 L 24.398438 10.605469 C 25.460938 10.21875 26.171875 9.195312 26.171875 8.054688 L 26.171875 0.464844 L 23.152344 0.464844 L 23.152344 2.445312 L 20.917969 2.445312 L 20.917969 0.464844 L 16.382812 0.464844 L 16.382812 2.445312 L 14.144531 2.445312 L 14.144531 0.464844 L 11.125 0.464844 L 11.125 8.054688 C 11.125 9.195312 11.835938 10.21875 12.902344 10.605469 Z M 12.902344 10.605469 " fill-opacity="1" fill-rule="nonzero"/></g></svg>